<svg width="448" height="449" viewBox="0 0 448 449" fill="none" xmlns="http://www.w3.org/2000/svg">
<path d="M313.14 449H242C237.226 449 232.648 447.104 229.272 443.728C225.896 440.352 224 435.774 224 431V403.29C224.014 399.034 223.159 394.82 221.49 390.905C219.821 386.99 217.371 383.457 214.29 380.52C206.51 372.93 195.21 368.72 183.4 369.01C162.04 369.51 144 388.31 144 410.07V431C144 435.774 142.104 440.352 138.728 443.728C135.352 447.104 130.774 449 126 449H55.62C48.3159 449 41.0833 447.561 34.3351 444.766C27.587 441.971 21.4555 437.874 16.2907 432.709C5.85995 422.279 0 408.131 0 393.38V323C0 318.226 1.89642 313.648 5.27208 310.272C8.64773 306.896 13.2261 305 18 305H45.71C54.87 305 63.78 301.08 70.8 294C74.7055 290.063 77.794 285.393 79.8878 280.258C81.9815 275.123 83.0392 269.625 83 264.08C82.7 242.89 65.26 225 44.91 225H18C13.2261 225 8.64773 223.104 5.27208 219.728C1.89642 216.352 0 211.774 0 207V136.62C0 129.316 1.43866 122.083 4.23382 115.335C7.02899 108.587 11.1259 102.456 16.2907 97.2907C26.7215 86.86 40.8687 81 55.62 81H110.86C112.982 81 115.017 80.1572 116.517 78.6569C118.017 77.1566 118.86 75.1218 118.86 73V66.52C118.86 57.8177 120.593 49.2026 123.959 41.1774C127.324 33.1522 132.254 25.8777 138.462 19.7784C144.669 13.6792 152.029 8.87741 160.112 5.65328C168.195 2.42916 176.839 0.847303 185.54 1.00002C221.03 1.62002 249.9 31.38 249.9 67.33V73C249.9 75.1218 250.743 77.1566 252.243 78.6569C253.743 80.1572 255.778 81 257.9 81H313.14C320.344 81 327.478 82.419 334.134 85.176C340.79 87.933 346.838 91.9739 351.932 97.0681C357.026 102.162 361.067 108.21 363.824 114.866C366.581 121.522 368 128.656 368 135.86V191.1C368 193.222 368.843 195.257 370.343 196.757C371.843 198.257 373.878 199.1 376 199.1H381.66C418.24 199.1 448 228.1 448 263.74C448 300.35 418.61 330.14 382.48 330.14H376C373.878 330.14 371.843 330.983 370.343 332.483C368.843 333.983 368 336.018 368 338.14V394.14C368 401.344 366.581 408.478 363.824 415.134C361.067 421.79 357.026 427.838 351.932 432.932C346.838 438.026 340.79 442.067 334.134 444.824C327.478 447.581 320.344 449 313.14 449Z" fill="black"/>
</svg>
